<?xml version="1.0" standalone="no"?>
<!DOCTYPE svg PUBLIC "-//W3C//DTD SVG 20010904//EN"
 "http://www.w3.org/TR/2001/REC-SVG-20010904/DTD/svg10.dtd">
<svg version="1.0" xmlns="http://www.w3.org/2000/svg"
 width="1024.000000pt" height="577.000000pt" viewBox="0 0 1024.000000 577.000000"
 preserveAspectRatio="xMidYMid meet">

<g transform="translate(0.000000,577.000000) scale(0.100000,-0.100000)"
fill="#000000" stroke="none">
<path d="M0 2885 l0 -2885 5120 0 5120 0 0 2885 0 2885 -5120 0 -5120 0 0
-2885z m8594 -537 c-15 -30 -15 -32 2 -45 20 -15 7 -18 -16 -3 -12 8 -12 13 3
44 9 20 19 36 22 36 3 0 -2 -14 -11 -32z m94 -31 c2 -9 -2 -17 -8 -17 -6 0 -8
5 -4 11 3 6 0 16 -7 21 -12 8 -11 9 1 5 8 -2 16 -11 18 -20z m-39 -8 c-11 -7
-10 -11 6 -24 20 -16 19 -16 -2 -5 -25 12 -25 12 -17 34 3 9 11 13 16 10 6 -4
5 -10 -3 -15z m105 2 c4 -5 -3 -7 -14 -4 -23 6 -26 13 -6 13 8 0 17 -4 20 -9z
m81 -31 c-19 -37 -40 -47 -60 -30 -21 17 -1 50 30 50 13 0 27 5 30 11 15 24
15 -2 0 -31z m-121 5 c-4 -9 0 -15 9 -15 8 0 18 6 20 13 4 9 6 9 6 -1 1 -17
-28 -27 -41 -14 -6 6 -7 15 -4 21 10 16 16 13 10 -4z m-7768 -650 c27 -8 65
-28 86 -45 47 -39 88 -121 88 -177 0 -40 5 -49 53 -96 59 -58 112 -155 123
-223 5 -34 13 -49 33 -61 79 -49 120 -115 128 -204 10 -105 -37 -194 -129
-245 -69 -37 -170 -40 -235 -6 -40 21 -43 21 -85 5 -58 -22 -227 -23 -285 -1
-39 15 -43 15 -80 -3 -130 -64 -300 -2 -350 129 -43 112 -4 247 89 307 39 25
47 36 52 71 11 67 64 165 120 224 48 49 54 61 60 109 21 167 171 264 332 216z"/>
<path d="M8780 2269 c0 -25 33 -22 38 4 2 12 -3 17 -17 17 -15 0 -21 -6 -21
-21z"/>
<path d="M753 1609 c-76 -37 -121 -108 -126 -199 -3 -44 -8 -53 -48 -88 -84
-75 -148 -225 -141 -333 l3 -46 40 14 c59 20 103 8 154 -41 54 -51 65 -97 40
-162 -36 -95 -149 -133 -230 -79 -31 21 -36 23 -21 7 13 -15 17 -32 14 -61 -4
-49 0 -51 93 -51 50 0 81 6 110 20 36 19 43 20 82 6 67 -22 124 -29 193 -21
l64 7 0 44 0 45 -37 -8 c-53 -11 -147 -7 -173 7 -16 9 -20 17 -15 33 3 12 9
54 12 92 4 63 2 75 -24 125 -34 64 -87 105 -159 124 -44 12 -49 15 -47 40 3
39 41 110 80 148 l33 32 38 -36 c49 -48 93 -69 157 -75 72 -8 143 17 193 68
22 21 44 39 50 39 31 0 121 -161 109 -193 -3 -8 -28 -20 -55 -27 -51 -12 -122
-63 -143 -102 -10 -18 -16 -335 -6 -344 2 -2 17 0 33 6 23 8 37 6 69 -10 49
-25 158 -27 213 -4 179 74 187 349 12 439 -20 10 -30 23 -30 39 0 69 -62 187
-139 261 -32 31 -41 46 -41 73 0 85 -55 174 -131 212 -54 28 -169 28 -226 -1z
m237 -61 c-2 -37 4 -65 19 -93 26 -49 26 -68 0 -125 -12 -25 -22 -65 -22 -90
l0 -45 -4 41 -4 41 -47 -24 c-35 -18 -56 -22 -82 -18 -87 16 -146 91 -137 173
12 112 131 175 230 122 l37 -20 0 45 c0 25 2 45 6 45 3 0 4 -24 4 -52z m292
-604 c61 -31 97 -115 75 -175 -17 -48 -37 -73 -77 -98 -47 -28 -107 -28 -151
2 -84 56 -104 149 -49 225 17 23 31 42 33 42 1 0 20 7 42 15 42 15 82 12 127
-11z"/>
<path d="M802 1523 c-51 -25 -77 -69 -77 -130 0 -37 6 -60 21 -80 87 -117 264
-64 264 78 0 110 -110 180 -208 132z"/>
<path d="M1172 949 c-62 -13 -112 -78 -112 -147 0 -71 72 -142 145 -142 44 0
96 30 123 70 20 29 23 44 20 88 -4 45 -10 59 -40 88 -38 39 -86 54 -136 43z"/>
<path d="M614 1218 c-28 -34 -74 -123 -74 -145 0 -7 10 -13 23 -13 40 0 122
-46 159 -89 20 -23 41 -62 48 -86 12 -43 9 -136 -5 -181 -8 -26 14 -34 96 -34
85 0 122 9 113 29 -65 150 24 328 179 356 25 5 37 12 37 24 0 28 -48 115 -79
145 l-30 29 -27 -32 c-85 -101 -264 -107 -363 -10 -23 21 -43 39 -45 39 -2 0
-17 -15 -32 -32z"/>
<path d="M390 1008 c-19 -13 -48 -43 -64 -66 -26 -37 -31 -54 -34 -118 -4 -65
-1 -81 23 -129 14 -30 39 -64 55 -75 l28 -20 4 55 c2 38 -2 64 -14 87 -23 41
-23 90 -1 131 9 19 16 54 16 87 l-1 55 7 -54 c4 -41 9 -51 16 -40 6 8 8 36 5
62 l-5 49 -35 -24z"/>
<path d="M485 945 c-105 -37 -136 -164 -57 -237 73 -68 152 -64 215 12 39 46
44 90 16 147 -36 72 -103 102 -174 78z"/>
<path d="M965 837 c-4 -24 -2 -58 3 -77 9 -31 10 -26 11 43 1 42 -1 77 -3 77
-3 0 -8 -19 -11 -43z"/>
</g>
</svg>
