<?xml version="1.0" standalone="no"?>
<!DOCTYPE svg PUBLIC "-//W3C//DTD SVG 20010904//EN"
 "http://www.w3.org/TR/2001/REC-SVG-20010904/DTD/svg10.dtd">
<svg version="1.0" xmlns="http://www.w3.org/2000/svg"
 width="1080.000000pt" height="1080.000000pt" viewBox="0 0 1080.000000 1080.000000"
 preserveAspectRatio="xMidYMid meet">

<g transform="translate(0.000000,1080.000000) scale(0.100000,-0.100000)"
fill="#000000" stroke="none">
<path d="M6067 9304 c-3 -3 -34 -8 -69 -11 -35 -2 -91 -10 -126 -18 -35 -8
-74 -15 -87 -15 -12 0 -65 -21 -116 -47 -165 -82 -290 -233 -352 -423 -8 -25
-30 -90 -49 -145 -70 -200 -82 -281 -78 -525 l2 -105 15 65 c8 36 30 128 48
205 18 77 37 160 40 185 11 68 107 230 137 230 4 0 19 5 35 12 15 6 32 10 36
9 5 -1 25 3 45 9 25 6 50 6 73 0 24 -7 68 -7 128 -1 95 10 192 0 219 -21 8 -7
41 -9 85 -5 102 7 148 -3 189 -44 18 -19 65 -50 103 -69 39 -19 90 -47 114
-62 25 -16 54 -28 64 -28 13 0 17 -5 13 -15 -5 -14 9 -20 40 -16 7 1 15 -10
18 -25 12 -47 65 -129 94 -146 41 -24 56 -79 50 -180 -4 -57 -12 -97 -27 -125
-45 -90 -130 -343 -115 -343 3 0 18 16 35 35 17 19 38 35 46 35 19 0 43 25 43
45 0 9 16 57 35 106 19 50 35 99 35 108 0 10 18 45 41 79 24 36 43 77 46 101
3 23 10 41 14 41 5 0 9 13 9 29 0 15 8 39 18 52 10 13 23 49 30 79 6 30 15 78
21 105 6 28 12 86 13 131 2 84 -5 106 -54 158 -10 11 -18 25 -18 30 0 6 -18
48 -41 93 -36 71 -50 88 -111 135 -38 29 -91 66 -116 82 -26 15 -74 52 -107
80 -85 75 -145 107 -192 105 -21 -1 -57 3 -80 10 -23 6 -54 9 -69 5 -19 -5
-25 -4 -20 5 5 8 -9 11 -47 11 -29 0 -56 -3 -60 -6z m-487 -504 c0 -5 -10 -10
-22 -10 -19 0 -20 2 -8 10 19 13 30 13 30 0z m997 -316 c-3 -3 -12 -4 -19 -1
-8 3 -5 6 6 6 11 1 17 -2 13 -5z"/>
<path d="M5471 8508 c-42 -12 -81 -46 -81 -72 0 -13 5 -16 18 -11 9 4 30 9 46
11 17 2 32 8 35 12 3 4 17 9 31 10 14 0 26 5 28 10 3 11 60 3 68 -9 3 -5 12
-9 21 -9 13 0 14 2 2 17 -13 15 -11 16 10 10 18 -4 21 -3 12 6 -6 6 -28 11
-49 9 -29 -1 -33 0 -17 7 l20 10 -20 0 c-11 1 -33 -6 -49 -14 -15 -8 -36 -15
-45 -15 -14 1 -14 2 2 14 18 14 23 27 10 25 -5 0 -23 -5 -42 -11z"/>
<path d="M5685 8493 c11 -3 28 -12 38 -21 10 -9 17 -11 17 -4 0 14 -33 32 -57
31 -16 -1 -15 -2 2 -6z"/>
<path d="M6360 8282 c0 -10 38 -42 50 -42 6 0 13 -7 16 -15 4 -8 15 -15 26
-15 11 0 32 -12 47 -27 15 -16 39 -34 54 -42 14 -8 27 -23 29 -34 5 -37 28
-32 28 6 0 29 -8 43 -42 76 -24 22 -50 41 -58 41 -8 0 -24 7 -34 15 -11 8 -28
15 -38 15 -11 0 -32 7 -48 15 -17 9 -30 12 -30 7z"/>
<path d="M5475 8241 c-27 -4 -41 -12 -43 -23 -3 -14 3 -18 23 -18 14 0 36 -5
48 -12 19 -10 20 -9 10 4 -14 16 -8 28 15 28 10 0 13 -8 10 -25 -6 -27 3 -32
68 -41 31 -4 42 0 55 17 13 18 19 20 37 10 12 -7 22 -20 22 -30 0 -11 7 -22
16 -25 46 -18 23 36 -30 72 -74 50 -123 59 -231 43z m155 -41 c0 -5 -4 -10
-10 -10 -5 0 -10 5 -10 10 0 6 5 10 10 10 6 0 10 -4 10 -10z"/>
<path d="M6310 8239 c0 -5 5 -7 10 -4 6 3 10 8 10 11 0 2 -4 4 -10 4 -5 0 -10
-5 -10 -11z"/>
<path d="M5810 8134 c0 -8 5 -12 10 -9 6 3 10 10 10 16 0 5 -4 9 -10 9 -5 0
-10 -7 -10 -16z"/>
<path d="M6161 8043 c-23 -15 -23 -17 -6 -30 11 -7 26 -13 34 -13 14 0 14 2 1
10 -19 12 -12 17 25 22 27 3 30 1 27 -24 -4 -29 11 -41 66 -53 24 -5 38 -3 51
9 17 15 19 15 24 1 4 -10 1 -15 -10 -15 -9 0 5 -11 31 -25 106 -57 101 -6 -8
69 -94 65 -186 84 -235 49z"/>
<path d="M5152 7946 c-22 -29 -38 -86 -29 -108 3 -7 6 -1 6 13 1 14 12 43 26
64 31 45 28 70 -3 31z"/>
<path d="M5080 7802 c0 -12 61 -55 68 -47 3 3 -7 17 -23 30 -31 25 -45 31 -45
17z"/>
<path d="M5754 7788 c3 -13 6 -26 6 -29 0 -7 60 -6 60 1 0 17 -34 50 -52 50
-16 0 -19 -4 -14 -22z"/>
<path d="M5940 7736 c0 -21 17 -29 46 -22 21 6 24 9 14 21 -16 19 -60 20 -60
1z"/>
<path d="M5465 7488 c11 -7 35 -11 54 -9 32 2 66 -6 211 -49 77 -22 198 -50
221 -50 9 0 36 -13 60 -30 42 -28 89 -40 89 -21 0 25 -222 101 -297 101 -19 0
-47 7 -64 15 -66 34 -330 75 -274 43z"/>
<path d="M6395 7120 c-3 -5 -1 -10 4 -10 6 0 11 5 11 10 0 6 -2 10 -4 10 -3 0
-8 -4 -11 -10z"/>
<path d="M6376 7075 c-9 -26 -7 -32 5 -12 6 10 9 21 6 23 -2 3 -7 -2 -11 -11z"/>
<path d="M6316 6518 c-9 -94 -8 -112 7 -100 10 9 53 10 74 3 11 -4 -33 -102
-62 -139 -138 -174 -391 -299 -701 -348 -206 -32 -474 -15 -581 37 -64 31
-133 99 -133 131 0 15 -6 28 -12 31 -21 6 -17 204 5 246 21 42 21 38 -5 44
-12 3 -68 -9 -127 -28 -58 -18 -133 -39 -166 -45 -33 -7 -72 -19 -87 -28 -22
-13 -30 -14 -40 -4 -9 9 -15 9 -27 -2 -15 -12 -130 -40 -336 -81 -87 -17 -162
-39 -204 -61 -14 -8 -34 -14 -44 -14 -27 0 -54 -17 -140 -87 -42 -34 -90 -70
-105 -80 -38 -25 -167 -144 -165 -153 1 -5 -20 -46 -48 -91 -69 -115 -205
-398 -235 -488 -32 -99 -46 -191 -39 -260 5 -40 -1 -91 -19 -180 -20 -103 -29
-128 -50 -145 -13 -12 -39 -47 -56 -78 -18 -32 -36 -61 -41 -64 -43 -26 49
-86 211 -138 171 -56 197 -67 251 -111 24 -19 61 -49 82 -66 21 -17 61 -39 88
-49 27 -10 70 -30 94 -45 37 -21 45 -31 45 -55 0 -16 -4 -32 -10 -35 -5 -3
-10 -16 -10 -27 0 -21 -8 -51 -38 -136 -8 -24 -26 -53 -38 -65 -13 -12 -24
-27 -24 -33 0 -6 -13 -27 -30 -45 -19 -23 -32 -51 -37 -84 -6 -37 -13 -50 -25
-50 -10 0 -31 -14 -48 -30 -53 -54 -71 -66 -89 -63 -10 2 -26 -4 -35 -12 -21
-17 -46 -22 -46 -9 0 5 -5 9 -11 9 -6 0 -9 -6 -6 -14 8 -19 -16 -38 -37 -30
-12 5 -16 1 -14 -16 2 -18 -6 -25 -42 -40 -47 -18 -56 -30 -44 -58 4 -9 6 -20
6 -24 -1 -5 2 -8 6 -8 4 0 9 -10 9 -22 1 -13 6 -24 11 -26 6 -2 8 -12 5 -22
-3 -11 0 -20 6 -20 6 0 11 -9 11 -20 0 -13 7 -20 20 -21 11 -1 26 -2 32 -3 7
0 14 -10 17 -21 4 -24 19 -35 49 -35 12 0 22 -4 22 -10 0 -5 7 -7 15 -4 8 4
17 -1 21 -10 3 -9 14 -16 25 -16 10 0 23 -8 28 -17 6 -10 11 -15 11 -10 0 11
60 -22 60 -33 0 -6 5 -10 11 -10 6 0 17 -6 25 -14 7 -8 18 -16 24 -18 6 -2 12
-13 13 -25 0 -12 5 -19 9 -17 5 3 6 10 3 15 -4 5 1 9 10 9 11 0 15 -5 11 -15
-3 -10 1 -15 13 -15 10 0 24 -7 31 -15 7 -8 25 -15 40 -15 20 0 44 -15 81 -50
30 -27 61 -50 70 -50 8 0 25 -9 36 -20 15 -13 23 -16 26 -7 3 9 7 9 19 -1 9
-7 30 -14 47 -17 47 -6 75 -16 87 -34 10 -13 14 -13 28 -2 9 7 16 9 16 4 0 -6
17 -13 38 -16 32 -4 109 -43 132 -67 12 -12 50 -29 50 -22 0 4 -48 57 -107
117 -92 94 -124 119 -218 172 -120 68 -162 110 -177 177 -11 49 -4 96 24 150
11 22 33 70 48 107 62 153 246 289 301 223 7 -9 22 -20 34 -25 11 -5 28 -13
38 -19 9 -5 25 -15 35 -20 9 -6 27 -14 38 -19 35 -15 74 -57 74 -78 0 -15 11
-23 43 -32 75 -22 145 -63 152 -88 3 -13 13 -23 23 -24 9 0 31 -9 47 -20 17
-10 40 -23 52 -29 15 -6 20 -15 17 -25 -5 -11 1 -15 21 -15 31 0 171 -64 196
-90 9 -9 42 -24 73 -34 31 -10 56 -22 56 -28 0 -6 7 -7 16 -4 10 4 13 2 8 -6
-5 -8 -2 -9 11 -5 11 5 23 1 34 -11 9 -10 28 -22 44 -26 15 -3 27 -13 27 -21
0 -14 24 -19 85 -18 11 0 25 -6 33 -13 7 -8 20 -14 28 -14 9 0 12 -5 8 -12 -5
-8 2 -9 24 -5 36 7 41 1 15 -19 -16 -12 -15 -13 9 -8 16 2 33 -2 42 -12 9 -9
21 -12 28 -7 19 11 39 13 32 2 -3 -5 -10 -7 -15 -4 -5 4 -9 2 -9 -4 0 -6 24
-9 58 -7 31 2 65 0 74 -5 11 -6 18 -5 21 4 4 9 8 8 16 -2 6 -9 29 -16 60 -17
28 -1 57 -6 64 -13 8 -6 17 -8 20 -5 4 4 18 -1 31 -10 14 -9 36 -16 50 -16 14
0 28 -4 31 -10 3 -5 17 -10 31 -10 13 0 24 -4 24 -9 0 -5 11 -12 25 -15 14 -4
24 -10 24 -14 -3 -18 2 -26 9 -14 12 18 40 5 58 -27 8 -14 13 -18 10 -8 -3 9
-1 17 4 17 6 0 10 -5 10 -11 0 -5 5 -7 10 -4 6 4 7 12 4 18 -4 7 2 3 13 -8 11
-11 19 -23 17 -26 -2 -4 13 -6 34 -6 24 0 36 -4 34 -12 -2 -8 7 -11 25 -9 22
2 28 -1 26 -15 0 -10 2 -16 5 -13 3 3 14 -2 24 -11 10 -9 28 -18 40 -20 12 -2
27 -11 34 -21 7 -9 14 -12 14 -6 0 14 102 13 112 -1 4 -6 8 -2 8 8 0 12 8 17
29 17 16 0 34 6 41 14 6 8 21 16 33 18 14 2 22 10 22 22 0 11 13 26 32 35 30
15 52 51 31 51 -7 0 -6 5 1 14 7 8 8 16 4 19 -5 3 -8 28 -7 56 0 28 -3 51 -7
51 -10 0 -21 41 -19 68 1 14 -4 22 -14 22 -17 0 -21 12 -9 24 12 12 12 35 -1
30 -18 -7 -37 33 -38 81 0 25 -4 42 -8 40 -14 -8 -18 20 -11 61 4 23 4 50 0
62 -5 12 -4 24 2 27 5 4 7 10 5 14 -9 13 -7 106 3 146 5 22 14 64 20 94 6 30
15 59 20 65 4 6 11 31 15 55 8 55 28 94 59 114 49 32 301 46 482 27 44 -4 168
-13 275 -20 107 -6 218 -17 245 -24 l50 -13 9 -106 c9 -111 20 -130 46 -83 7
14 33 39 59 58 82 59 91 73 91 147 0 36 -4 83 -9 104 -5 21 -10 177 -11 345
-2 345 -23 560 -94 977 -28 160 -92 294 -199 415 -40 44 -88 99 -107 121 -19
23 -61 59 -95 81 -33 23 -76 55 -95 73 -69 64 -327 252 -400 292 -41 22 -126
60 -189 84 -82 31 -125 54 -154 81 -23 21 -45 38 -51 38 -5 0 -31 20 -57 45
-26 25 -55 45 -63 45 -8 0 -29 20 -45 44 -17 24 -46 53 -66 64 -19 12 -35 28
-35 36 0 8 -4 17 -9 20 -4 3 -11 -22 -15 -56z m-832 -1833 c-31 -71 -30 -78 8
-93 25 -9 29 -15 20 -24 -19 -19 -92 7 -92 33 0 30 58 139 75 139 11 0 9 -12
-11 -55z m176 -41 c15 -17 2 -70 -16 -67 -5 1 -22 5 -37 8 -17 5 -27 3 -27 -4
0 -6 11 -13 25 -17 34 -8 33 -34 -2 -34 -58 0 -83 65 -43 108 25 26 81 30 100
6z m108 -20 c27 -18 27 -27 5 -81 -19 -46 -37 -52 -88 -33 -34 13 -42 36 -19
61 14 16 26 19 52 14 23 -4 32 -3 27 4 -3 6 -12 11 -20 11 -17 0 -28 17 -20
30 9 15 37 12 63 -6z m188 2 c6 -15 -38 -109 -64 -138 -37 -43 -121 -6 -108
47 11 45 43 68 86 62 32 -4 40 -1 51 19 14 27 27 31 35 10z m84 -99 c7 -17 9
-18 9 -4 1 9 6 17 12 17 6 0 8 -9 3 -22 -19 -61 10 -77 33 -18 l13 35 -6 -38
c-8 -60 -24 -87 -51 -87 -33 0 -29 20 5 21 l27 0 -22 16 c-13 8 -23 24 -23 34
0 18 -1 18 -20 -1 -12 -12 -26 -17 -36 -13 -11 4 -22 -1 -30 -12 -17 -23 -18
-6 -4 47 15 51 36 71 61 57 11 -6 24 -20 29 -32z m135 -17 c3 -5 17 -10 30
-10 29 0 36 -19 24 -64 -13 -48 -23 -46 -15 3 8 52 -10 63 -29 17 -20 -47 -28
-46 -20 4 9 54 -18 56 -36 3 -7 -21 -14 -33 -16 -26 -2 6 3 27 11 47 14 35 38
47 51 26z m-638 -20 c2 -19 -8 -26 -20 -14 -7 7 2 34 12 34 4 0 7 -9 8 -20z
m69 -27 c-11 -11 -19 6 -11 24 8 17 8 17 12 0 3 -10 2 -21 -1 -24z m84 -2 c0
-12 -20 -25 -27 -18 -7 7 6 27 18 27 5 0 9 -4 9 -9z m70 -15 c0 -8 -4 -18 -10
-21 -5 -3 -10 3 -10 14 0 12 5 21 10 21 6 0 10 -6 10 -14z m90 -31 c0 -19 -20
-29 -32 -17 -8 8 -7 16 2 26 14 17 30 12 30 -9z m84 -13 c2 -4 1 -14 -4 -21
-10 -17 -31 -5 -23 14 6 16 19 20 27 7z m-365 -16 c9 -11 10 -20 1 -35 -14
-26 -25 -27 -27 -2 -1 14 3 18 14 14 10 -4 14 -2 12 6 -7 20 -23 16 -36 -10
-12 -22 -13 -22 -13 -3 0 19 17 44 31 44 4 0 12 -6 18 -14z m82 -16 c21 -12
28 -65 7 -57 -7 2 -14 9 -14 15 -3 24 -4 26 -16 14 -18 -18 -38 -15 -38 6 0
33 24 41 61 22z m349 1 c0 -6 -4 -13 -10 -16 -5 -3 -10 1 -10 9 0 9 5 16 10
16 6 0 10 -4 10 -9z m64 -40 c-9 -10 -26 18 -18 30 5 9 9 8 14 -7 4 -10 6 -21
4 -23z m-305 4 c2 -3 -3 -13 -12 -22 -12 -13 -17 -14 -17 -4 0 8 -6 11 -15 7
-8 -3 -15 -4 -15 -2 0 3 -3 12 -7 22 -5 15 -2 16 27 10 18 -3 36 -9 39 -11z
m51 -13 c8 -2 21 -4 29 -4 8 -1 16 -10 19 -20 5 -19 27 -24 37 -8 10 17 25 11
25 -10 0 -11 5 -20 10 -20 6 0 10 7 10 15 0 22 13 18 34 -10 17 -22 44 -26 31
-4 -4 5 -1 9 4 9 14 0 14 -6 1 -31 -9 -16 -15 -17 -31 -9 -11 6 -23 9 -27 6
-4 -2 -25 4 -46 15 -22 11 -48 17 -57 14 -10 -3 -20 -1 -23 4 -4 6 -13 8 -21
5 -8 -4 -17 1 -21 9 -3 9 -12 13 -19 11 -11 -5 -12 -1 -2 19 6 14 16 22 22 19
5 -4 17 -8 25 -10z m-1821 -451 c14 -15 34 -31 44 -34 20 -7 24 -38 16 -137
-3 -38 0 -46 18 -55 20 -10 19 -12 -22 -38 -106 -68 -222 -227 -266 -367 -22
-72 -28 -189 -10 -232 13 -35 9 -35 -51 3 -55 36 -98 83 -98 108 0 10 -14 38
-31 64 -31 48 -33 81 -6 147 12 30 19 100 18 193 -1 75 18 124 64 167 32 29
55 71 55 99 0 23 92 108 123 113 12 2 44 2 71 1 39 -3 55 -9 75 -32z m2621
-229 c0 -21 -49 -99 -79 -126 -17 -15 -178 -56 -223 -56 -24 0 -23 26 2 75 23
46 35 55 75 55 29 0 130 34 150 50 10 8 39 17 63 19 6 0 12 -7 12 -17z m-2470
-32 c0 -5 -9 -10 -19 -10 -11 0 -23 -5 -26 -10 -4 -6 -10 -8 -14 -5 -11 6
-124 -106 -161 -161 -35 -50 -85 -156 -95 -202 -3 -18 -10 -30 -13 -28 -4 2
-7 -38 -6 -89 1 -81 5 -100 28 -141 33 -58 33 -64 0 -33 -115 108 -55 396 121
574 68 70 132 113 168 114 9 1 17 -3 17 -9z m2366 -210 c25 -10 26 -13 22 -73
-5 -75 -31 -133 -68 -152 -23 -12 -80 -90 -80 -109 0 -13 28 -5 45 14 24 26
32 25 38 -5 6 -36 -20 -65 -67 -70 -70 -9 -70 -25 0 -56 l43 -20 -16 -33 c-26
-55 -73 -68 -140 -40 -85 37 -123 56 -128 64 -3 5 -18 11 -34 15 -15 3 -38 15
-49 26 -12 10 -25 18 -29 17 -18 -5 -52 14 -58 33 -4 10 -15 24 -26 29 -10 6
-19 17 -19 25 0 9 -5 24 -12 34 -18 29 6 74 53 100 21 12 39 27 39 32 0 5 10
7 23 4 14 -4 34 3 56 20 36 26 78 35 65 13 -5 -8 2 -9 27 -4 19 4 53 9 76 13
50 7 68 33 23 33 -29 0 -29 1 -12 18 9 10 23 16 31 14 9 -3 12 -1 7 6 -12 20
71 37 93 19 12 -10 14 -9 8 6 -4 11 -5 23 -1 28 7 12 56 11 90 -1z m-386 -114
c0 -2 -7 -7 -16 -10 -8 -3 -12 -2 -9 4 6 10 25 14 25 6z m-2863 -92 c-3 -3
-12 -4 -19 -1 -8 3 -5 6 6 6 11 1 17 -2 13 -5z"/>
<path d="M5605 4620 c3 -5 10 -10 16 -10 5 0 9 5 9 10 0 6 -7 10 -16 10 -8 0
-12 -4 -9 -10z"/>
<path d="M5695 4550 c-3 -5 3 -10 14 -10 12 0 21 5 21 10 0 6 -6 10 -14 10 -8
0 -18 -4 -21 -10z"/>
<path d="M5836 4548 c-14 -19 -14 -24 -1 -37 12 -12 17 -12 30 -1 18 15 17 51
-2 57 -6 2 -18 -6 -27 -19z"/>
<path d="M5981 4536 c-18 -21 -9 -51 14 -51 15 0 20 7 20 29 0 33 -16 44 -34
22z"/>
<path d="M5607 4363 c-4 -3 -7 -11 -7 -17 0 -6 5 -5 12 2 6 6 9 14 7 17 -3 3
-9 2 -12 -2z"/>
<path d="M5801 4304 c0 -11 3 -14 6 -6 3 7 2 16 -1 19 -3 4 -6 -2 -5 -13z"/>
<path d="M5059 6488 c-7 -25 -7 -48 1 -48 6 0 10 11 10 25 0 20 -7 35 -11 23z"/>
<path d="M6315 6389 c-4 -6 -5 -12 -2 -15 2 -3 7 2 10 11 7 17 1 20 -8 4z"/>
<path d="M4885 3030 c3 -5 8 -10 11 -10 2 0 4 5 4 10 0 6 -5 10 -11 10 -5 0
-7 -4 -4 -10z"/>
<path d="M3680 2589 c0 -5 5 -7 10 -4 6 3 10 8 10 11 0 2 -4 4 -10 4 -5 0 -10
-5 -10 -11z"/>
<path d="M2967 2354 c-8 -8 1 -24 14 -24 5 0 9 7 9 15 0 15 -12 20 -23 9z"/>
<path d="M3668 2243 c7 -3 16 -2 19 1 4 3 -2 6 -13 5 -11 0 -14 -3 -6 -6z"/>
<path d="M3775 2230 c-10 -16 13 -30 48 -30 15 0 27 -3 27 -7 0 -5 24 -8 52
-9 29 0 125 -2 213 -4 198 -4 330 -2 323 6 -9 8 -154 16 -295 17 -68 0 -123 3
-123 7 0 4 -6 7 -12 7 -47 1 -201 15 -212 19 -8 3 -17 0 -21 -6z"/>
<path d="M3645 2172 c6 -6 26 -14 45 -19 24 -6 36 -16 38 -30 2 -12 -13 -84
-33 -160 -134 -508 -168 -665 -183 -858 -8 -103 -12 -118 -65 -235 -30 -69
-58 -136 -62 -150 -3 -14 -7 -86 -9 -160 -3 -74 -9 -151 -15 -170 -6 -19 -11
-47 -11 -62 l0 -28 1947 2 1948 3 6 36 c3 22 27 66 59 109 43 57 54 81 58 120
5 58 -15 123 -64 205 -155 256 -219 376 -228 429 -6 32 -20 62 -43 95 -1 2
-18 -10 -37 -26 -51 -45 -119 -59 -195 -39 -65 17 -92 29 -216 101 -44 25
-125 59 -180 76 -537 165 -947 354 -1332 617 l-101 69 -339 6 c-195 3 -399 12
-483 22 -80 8 -199 20 -265 25 -135 11 -201 19 -230 27 -14 3 -17 2 -10 -5z"/>
</g>
</svg>
