<?xml version="1.0" standalone="no"?>
<!DOCTYPE svg PUBLIC "-//W3C//DTD SVG 20010904//EN"
 "http://www.w3.org/TR/2001/REC-SVG-20010904/DTD/svg10.dtd">
<svg version="1.0" xmlns="http://www.w3.org/2000/svg"
 width="900.000000pt" height="480.000000pt" viewBox="0 0 900.000000 480.000000"
 preserveAspectRatio="xMidYMid meet">

<g transform="translate(0.000000,480.000000) scale(0.100000,-0.100000)"
fill="#000000" stroke="none">
<path d="M0 2400 l0 -2400 4500 0 4500 0 0 2400 0 2400 -4500 0 -4500 0 0
-2400z m5470 1003 c0 -23 -184 -942 -201 -1003 -74 -268 -257 -417 -550 -446
-194 -19 -382 77 -441 225 -19 48 -22 76 -22 191 -1 116 2 145 22 204 96 286
273 417 565 417 118 1 168 -13 217 -57 46 -42 37 -62 85 191 20 105 41 211 47
238 l10 47 134 0 c74 0 134 -3 134 -7z m-4080 -65 c0 -7 -47 -256 -105 -554
-58 -298 -105 -544 -105 -547 0 -3 7 -13 16 -21 13 -14 58 -16 340 -16 270 0
324 -2 324 -14 0 -28 -41 -211 -49 -219 -4 -4 -170 -7 -367 -5 l-359 3 -58 28
c-32 16 -69 44 -85 64 -23 32 -27 47 -30 117 -3 70 11 153 102 619 58 295 108
542 111 547 10 16 265 13 265 -2z m1477 -379 c80 -31 172 -122 199 -199 33
-98 21 -299 -21 -348 l-23 -27 -364 -5 -363 -5 3 -33 c6 -74 63 -131 152 -151
59 -14 212 -14 362 0 65 6 122 9 125 6 5 -5 -31 -194 -38 -202 -8 -7 -356 -45
-415 -45 -193 1 -366 92 -426 225 -30 69 -37 224 -13 330 35 158 148 323 273
399 151 91 388 114 549 55z m976 26 c116 -17 178 -42 231 -93 55 -53 76 -103
76 -187 0 -67 -109 -673 -130 -722 -9 -22 -14 -23 -141 -23 l-131 0 7 39 7 39
-64 -32 c-157 -82 -377 -72 -497 23 -111 88 -108 280 6 402 98 105 235 149
491 156 l172 6 7 25 c3 14 0 44 -8 66 -11 31 -23 46 -54 61 -37 18 -57 20
-267 18 -128 -2 -228 1 -228 6 0 25 33 168 42 178 12 15 119 34 248 43 58 4
112 8 120 8 8 1 59 -5 113 -13z m2249 -13 c102 -45 160 -128 179 -258 23 -153
-20 -310 -104 -377 -66 -54 -121 -70 -224 -66 -75 3 -99 9 -151 35 l-62 31 0
-189 0 -188 -50 0 -51 0 3 413 c3 403 3 413 25 453 47 87 113 139 210 164 56
14 175 5 225 -18z m1404 13 c27 -8 67 -28 89 -44 l39 -29 41 28 c100 69 225
78 332 24 99 -50 113 -105 113 -445 0 -253 0 -253 -67 -247 l-38 3 -6 271 c-6
295 -7 303 -66 341 -35 23 -152 23 -187 -1 -59 -38 -61 -47 -66 -341 l-5 -270
-29 -3 c-15 -2 -39 -1 -52 2 l-24 6 0 255 c0 285 -5 316 -63 350 -42 25 -139
26 -184 2 -56 -30 -58 -38 -63 -337 l-5 -275 -50 0 -50 0 -3 268 c-3 288 2
326 44 377 60 70 188 98 300 65z m-992 -11 c3 -9 6 -124 6 -257 0 -266 4 -288
63 -331 24 -18 43 -21 120 -21 110 0 148 14 179 64 22 34 23 48 28 296 l5 260
53 3 53 3 -3 -413 c-4 -467 -5 -472 -81 -547 -59 -59 -136 -81 -276 -80 -58 1
-119 4 -136 8 -26 5 -30 10 -30 41 l0 35 140 5 c118 5 147 9 181 28 63 33 87
79 92 179 l5 83 -55 -25 c-109 -50 -183 -53 -305 -14 -75 24 -117 68 -132 138
-10 47 -23 526 -14 549 7 19 99 16 107 -4z m-4233 -1361 c33 -20 35 -26 15
-42 -11 -9 -25 -9 -60 0 -35 9 -53 9 -75 -1 -29 -12 -61 -62 -61 -94 0 -28 46
-66 79 -66 33 0 41 9 50 54 5 25 12 32 35 34 28 4 28 3 21 -40 -10 -59 -20
-74 -56 -87 -95 -33 -189 19 -189 105 0 51 37 111 83 133 51 25 119 27 158 4z
m713 8 c4 -5 3 -16 0 -25 -5 -13 -21 -16 -75 -16 -38 0 -69 -3 -69 -7 0 -5 -3
-18 -6 -30 -6 -22 -4 -23 55 -23 61 0 67 -4 55 -34 -5 -12 -20 -16 -64 -16
-56 0 -70 -8 -70 -41 0 -5 32 -9 70 -9 39 0 70 -3 70 -7 0 -5 -3 -18 -6 -30
-6 -22 -11 -23 -105 -23 -55 0 -99 4 -99 9 0 20 42 218 50 239 9 20 16 22 99
22 49 0 92 -4 95 -9z m640 -2 c21 -10 23 -15 15 -30 -8 -16 -17 -18 -62 -13
-41 5 -56 3 -66 -9 -18 -23 -8 -33 50 -52 108 -36 85 -139 -35 -152 -48 -6
-116 12 -116 30 1 30 15 35 73 25 50 -9 61 -8 75 6 20 20 11 29 -53 53 -37 14
-52 26 -60 46 -11 34 8 75 45 94 31 16 101 17 134 2z m704 -11 c-2 -19 -10
-24 -40 -26 -45 -4 -51 -13 -68 -107 -18 -101 -25 -115 -55 -115 -15 0 -25 6
-25 14 0 13 21 123 35 184 5 20 2 22 -35 22 -33 0 -40 3 -40 19 0 27 11 29
128 30 102 1 103 1 100 -21z m667 -8 c68 -64 45 -174 -47 -221 -60 -30 -129
-23 -171 19 -25 25 -30 38 -30 75 2 68 36 122 93 146 42 18 127 8 155 -19z
m694 19 c37 -13 51 -35 51 -82 0 -33 -30 -79 -59 -88 -10 -4 -8 -13 8 -39 27
-44 26 -50 -3 -50 -16 0 -35 13 -56 41 -39 49 -72 51 -80 4 -4 -25 -10 -31
-37 -33 -26 -3 -31 0 -28 15 2 10 14 65 26 123 12 58 27 108 33 112 17 12 109
9 145 -3z m601 -1 c0 -30 -44 -234 -53 -245 -10 -14 -43 -17 -51 -5 -5 8 40
237 49 253 9 14 55 11 55 -3z m662 -98 c45 -172 44 -160 10 -160 -24 0 -32 6
-41 30 -9 28 -13 30 -64 30 -47 0 -57 -4 -80 -30 -17 -18 -37 -30 -52 -30 -14
0 -25 3 -25 6 0 12 144 230 163 247 11 10 30 17 41 15 18 -3 25 -20 48 -108z"/>
<path d="M4737 2760 c-116 -30 -180 -119 -207 -286 -21 -128 4 -226 69 -266
31 -20 50 -23 131 -23 88 0 99 2 150 31 44 25 60 42 82 85 40 78 61 171 61
270 0 99 -17 140 -71 172 -37 22 -157 31 -215 17z"/>
<path d="M2510 2755 c-60 -19 -125 -76 -156 -136 l-24 -49 239 0 c263 0 256
-2 241 63 -11 50 -47 97 -88 114 -51 21 -159 26 -212 8z"/>
<path d="M3495 2385 c-103 -36 -129 -147 -45 -190 38 -20 139 -19 215 0 99 26
142 71 160 168 l7 37 -148 0 c-102 -1 -162 -5 -189 -15z"/>
<path d="M5830 2878 c-48 -33 -67 -64 -86 -138 -12 -48 -15 -86 -10 -148 13
-173 69 -232 221 -232 92 0 142 29 180 105 28 56 30 68 30 170 0 102 -2 114
-30 169 -40 80 -71 96 -186 96 -73 0 -91 -3 -119 -22z"/>
<path d="M4839 1550 c-26 -25 -30 -36 -27 -72 2 -33 8 -45 29 -57 55 -31 129
19 129 88 0 73 -76 96 -131 41z"/>
<path d="M5586 1572 c-2 -4 -7 -24 -11 -45 l-7 -37 44 0 c24 0 49 5 56 12 16
16 15 58 0 62 -33 10 -78 15 -82 8z"/>
<path d="M6857 1522 c-15 -23 -27 -44 -27 -47 0 -3 16 -5 35 -5 37 0 42 12 26
69 -6 23 -7 23 -34 -17z"/>
</g>
</svg>
