<?xml version="1.0" standalone="no"?>
<!DOCTYPE svg PUBLIC "-//W3C//DTD SVG 20010904//EN"
 "http://www.w3.org/TR/2001/REC-SVG-20010904/DTD/svg10.dtd">
<svg version="1.0" xmlns="http://www.w3.org/2000/svg"
 width="1080.000000pt" height="1080.000000pt" viewBox="0 0 1080.000000 1080.000000"
 preserveAspectRatio="xMidYMid meet">

<g transform="translate(0.000000,1080.000000) scale(0.100000,-0.100000)"
fill="#000000" stroke="none">
<path d="M0 5400 l0 -5400 5400 0 5400 0 0 5400 0 5400 -5400 0 -5400 0 0
-5400z m2425 1425 c33 -8 96 -33 140 -54 231 -114 375 -344 375 -601 l0 -86
49 -37 c110 -84 239 -244 308 -382 44 -87 90 -221 108 -317 10 -54 21 -87 32
-93 193 -117 285 -220 351 -393 24 -61 26 -80 27 -222 0 -146 -2 -159 -29
-233 -72 -196 -229 -351 -426 -418 -48 -16 -96 -23 -185 -27 -146 -5 -210 8
-341 73 l-91 45 -59 -24 c-141 -57 -225 -71 -424 -71 -198 0 -274 13 -420 70
l-61 24 -72 -39 c-201 -108 -448 -109 -650 -3 -142 75 -267 224 -323 388 -25
70 -28 95 -28 205 -1 112 2 134 28 214 17 50 49 119 76 160 55 84 159 183 235
222 48 25 56 34 60 64 49 310 204 581 438 767 l37 29 4 100 c12 305 223 568
512 638 80 19 254 20 329 1z m5515 -965 c0 -10 -34 -190 -60 -315 -6 -27 -20
-99 -31 -160 -44 -237 -71 -361 -90 -408 -57 -144 -191 -255 -348 -288 -83
-17 -226 -7 -286 20 -118 53 -177 153 -177 301 0 153 55 302 145 391 132 129
406 171 513 77 19 -17 34 -27 34 -24 0 4 18 97 40 206 22 109 40 201 40 205 0
3 50 5 110 5 69 0 110 -4 110 -10z m-3323 -62 c-3 -13 -24 -120 -47 -238 -22
-118 -45 -235 -51 -260 -5 -25 -23 -115 -40 -200 -16 -85 -32 -162 -35 -171
-2 -9 3 -24 11 -33 14 -14 51 -16 281 -16 145 0 264 -3 264 -7 0 -11 -30 -154
-36 -176 -6 -18 -22 -18 -297 -14 -188 2 -305 8 -329 16 -20 6 -53 28 -72 47
l-36 36 0 92 c0 52 8 133 19 186 17 79 81 414 122 630 6 30 15 72 20 93 l10
37 110 0 c110 0 111 0 106 -22z m1198 -299 c62 -23 125 -80 156 -141 27 -53
35 -151 20 -232 -19 -101 0 -96 -338 -96 -260 0 -294 -2 -300 -16 -8 -22 31
-100 60 -119 48 -31 140 -39 305 -26 85 7 156 10 159 8 4 -4 -26 -159 -32
-165 -9 -9 -230 -33 -310 -34 -239 -3 -383 99 -402 287 -11 109 45 295 118
384 63 79 190 151 302 171 73 13 198 3 262 -21z m879 7 c96 -29 159 -97 171
-185 6 -46 1 -79 -70 -456 -39 -202 -25 -185 -151 -185 l-107 0 6 35 6 36 -27
-20 c-134 -94 -392 -66 -471 53 -22 33 -26 50 -25 105 1 112 51 189 156 242
83 42 164 58 321 66 l138 6 -3 45 c-2 36 -9 49 -31 66 -27 20 -41 21 -223 21
-222 0 -203 -10 -180 100 12 58 13 60 52 68 131 28 349 30 438 3z m1758 -4
c55 -24 93 -63 121 -122 29 -64 29 -234 0 -300 -27 -59 -74 -105 -128 -126
-63 -24 -198 -16 -247 14 -19 12 -38 22 -42 22 -3 0 -6 -70 -6 -156 l0 -155
-37 3 -38 3 0 330 0 330 25 49 c48 92 138 140 251 132 31 -2 76 -13 101 -24z
m1176 4 c15 -8 37 -23 49 -35 19 -18 23 -18 34 -5 57 68 229 81 311 22 52 -37
57 -63 58 -314 l2 -229 -41 -3 -41 -3 0 218 c0 154 -4 225 -13 243 -19 39 -73
62 -129 56 -110 -12 -118 -31 -118 -306 l0 -210 -39 0 -39 0 -4 218 c-3 191
-5 221 -21 246 -25 38 -81 60 -134 52 -102 -14 -113 -43 -113 -311 l0 -205
-41 0 -40 0 3 238 c3 260 8 280 68 316 63 37 188 43 248 12z m-846 -200 c3
-199 4 -217 24 -243 30 -40 70 -57 139 -57 79 0 115 19 143 74 21 41 22 57 22
242 l0 198 40 0 40 0 0 -328 c0 -375 -3 -398 -71 -456 -54 -46 -104 -57 -234
-54 l-110 3 -3 33 -3 32 113 0 c90 0 120 4 148 18 49 26 80 90 80 164 l0 58
-42 -23 c-37 -19 -59 -22 -149 -22 -96 0 -109 2 -142 25 -67 45 -72 67 -75
323 l-3 227 40 0 40 0 3 -214z m-3451 -902 c30 -15 30 -16 13 -35 -12 -13 -21
-16 -28 -9 -18 18 -84 12 -106 -10 -27 -27 -27 -85 -1 -100 47 -25 81 -8 81
41 0 14 7 19 26 19 25 0 25 -2 19 -42 -9 -54 -27 -67 -92 -68 -70 0 -106 29
-106 87 0 102 104 164 194 117z m589 7 c0 -32 -14 -41 -66 -41 -30 0 -54 -2
-54 -4 0 -2 -3 -11 -6 -20 -5 -13 3 -16 46 -16 43 0 51 -3 46 -16 -3 -9 -6
-18 -6 -20 0 -2 -22 -4 -49 -4 -44 0 -49 -2 -53 -25 -5 -24 -4 -25 53 -25 33
0 59 -2 59 -4 0 -30 -15 -36 -95 -36 l-82 0 19 98 c10 53 21 103 23 110 5 14
165 18 165 3z m526 -4 c3 -3 3 -14 0 -25 -6 -18 -11 -19 -41 -11 -23 7 -41 6
-55 -1 -29 -16 -25 -27 18 -40 74 -24 91 -62 47 -105 -19 -20 -34 -25 -75 -25
-67 0 -94 14 -80 41 9 15 15 17 30 9 29 -16 87 -12 94 5 3 10 -1 18 -12 22
-87 30 -99 43 -88 88 9 36 52 56 109 52 26 -2 50 -7 53 -10z m564 4 c0 -28
-15 -41 -45 -41 -30 0 -33 -3 -40 -37 -23 -125 -26 -133 -51 -133 -28 0 -28 3
-9 90 8 36 14 68 15 73 0 4 -15 7 -34 7 -30 0 -33 2 -28 25 4 25 6 25 98 25
52 0 94 -4 94 -9z m546 -22 c43 -41 27 -135 -30 -173 -36 -23 -117 -21 -148 4
-55 42 -35 149 33 183 45 23 112 17 145 -14z m546 21 c64 -18 77 -73 28 -122
-28 -27 -29 -31 -15 -51 21 -30 19 -37 -9 -37 -17 0 -31 10 -43 30 -23 39 -57
38 -61 -2 -3 -23 -8 -28 -31 -28 l-28 0 19 98 c10 53 21 103 23 110 5 15 66
16 117 2z m508 -4 c0 -13 -21 -123 -35 -183 -4 -16 -13 -23 -30 -23 -30 0 -30
-5 -5 115 11 53 20 99 20 101 0 2 11 4 25 4 15 0 25 -6 25 -14z m544 -91 c14
-57 26 -107 26 -110 0 -3 -11 -5 -24 -5 -16 0 -27 7 -31 20 -9 30 -98 29 -118
-1 -10 -14 -23 -19 -40 -17 -25 3 -24 5 45 111 55 84 75 107 93 107 20 0 25
-10 49 -105z"/>
<path d="M2148 6517 c-62 -24 -125 -65 -162 -108 -133 -156 -120 -381 29 -518
74 -67 146 -94 251 -95 73 -1 86 2 156 37 87 42 136 92 177 177 23 48 26 68
26 155 0 89 -3 106 -27 156 -36 72 -105 141 -176 176 -48 23 -72 28 -147 31
-57 1 -103 -3 -127 -11z"/>
<path d="M1616 5703 c-73 -87 -144 -216 -175 -317 -12 -37 -21 -69 -21 -71 0
-1 23 -5 52 -8 200 -24 408 -167 501 -345 61 -117 82 -201 81 -332 0 -102 -4
-125 -32 -209 -18 -52 -31 -95 -30 -96 14 -8 100 -26 175 -36 68 -8 115 -9
185 0 101 12 184 34 181 47 -1 5 -14 43 -29 84 -19 56 -27 102 -31 180 -6 132
12 222 68 338 33 69 58 102 128 172 104 106 206 161 343 188 98 19 93 11 61
112 -35 107 -139 276 -216 348 l-24 23 -89 -88 c-63 -62 -110 -100 -161 -126
-193 -101 -432 -103 -624 -6 -78 39 -184 122 -224 177 -16 23 -35 42 -42 42
-7 0 -41 -35 -77 -77z"/>
<path d="M1290 4994 c-109 -29 -199 -106 -248 -212 -23 -48 -27 -71 -27 -147
0 -77 4 -99 27 -147 35 -76 104 -148 175 -184 53 -27 67 -29 163 -29 96 0 110
2 163 29 69 35 149 117 179 183 18 39 22 67 23 148 0 90 -3 106 -28 157 -52
106 -150 182 -265 207 -67 14 -94 13 -162 -5z"/>
<path d="M3050 4994 c-182 -49 -302 -235 -269 -418 22 -121 95 -218 205 -272
53 -26 69 -29 159 -29 87 0 107 3 156 26 111 52 186 151 208 274 20 107 -17
228 -94 314 -42 46 -132 95 -203 110 -67 14 -94 13 -162 -5z"/>
<path d="M7304 5321 c-22 -10 -50 -31 -62 -46 -59 -75 -91 -267 -55 -334 31
-59 64 -76 146 -76 159 1 227 80 241 284 7 93 -7 137 -53 168 -44 30 -155 32
-217 4z"/>
<path d="M5510 5324 c-56 -24 -120 -95 -120 -134 0 -7 61 -10 193 -8 l192 3
-3 35 c-5 48 -30 87 -68 105 -41 19 -148 19 -194 -1z"/>
<path d="M6380 5041 c-60 -9 -103 -33 -118 -66 -18 -39 -15 -59 13 -85 46 -43
191 -36 262 13 34 23 63 79 63 122 0 25 -1 25 -87 24 -49 -1 -108 -5 -133 -8z"/>
<path d="M8266 5450 c-78 -25 -109 -89 -110 -225 0 -87 3 -106 24 -142 29 -53
76 -76 150 -76 129 0 186 79 178 248 -4 95 -28 151 -75 178 -37 21 -125 31
-167 17z"/>
<path d="M7420 4350 c-27 -27 -27 -85 -1 -100 32 -16 60 -12 86 15 27 26 33
73 13 93 -19 19 -76 14 -98 -8z"/>
<path d="M8026 4354 c-14 -37 -7 -54 23 -54 34 0 65 26 57 47 -3 8 -6 17 -6
19 0 2 -15 4 -34 4 -22 0 -36 -6 -40 -16z"/>
<path d="M9071 4325 c-11 -20 -21 -38 -21 -41 0 -2 14 -4 30 -4 30 0 31 1 24
38 -4 20 -8 38 -9 40 -1 2 -12 -13 -24 -33z"/>
</g>
</svg>
